<svg xmlns="http://www.w3.org/2000/svg" width="512" height="512" viewBox="0 0 512 512">
<defs><linearGradient id="gF" x1="0" y1="0" x2="0" y2="1"><stop offset="0" stop-color="#2a6e3f"/><stop offset="1" stop-color="#143d24"/></linearGradient><clipPath id="clip"><rect x="0" y="0" width="512" height="512" rx="114.5344" ry="114.5344"/></clipPath></defs>
<g clip-path="url(#clip)"><rect width="512" height="512" fill="url(#gF)"/>
<circle cx="256" cy="256" r="160" fill="#1d5230"/>
<g fill="#f5efe1" opacity="0.92">
  <path d="M150 200 q40 -30 80 -10 q20 30 -10 50 q-30 20 -60 5 q-30 -20 -10 -45 Z"/>
  <path d="M260 180 q60 -10 70 30 q10 50 -40 60 q-30 -10 -25 -45 q-20 -30 -5 -45 Z"/>
  <path d="M200 300 q40 -10 55 25 q5 45 -45 55 q-35 -15 -25 -45 q-10 -25 10 -35 Z"/></g>
<circle cx="372" cy="372" r="58" fill="#d8a13a"/>
<polygon points="372,332 384,362 416,362 390,382 400,414 372,395 344,414 354,382 328,362 360,362" fill="#ffffff"/></g></svg>